<svg xmlns="http://www.w3.org/2000/svg" width="33.971" height="33.6" viewBox="0 0 33.971 33.6">
  <path id="Shape_4" data-name="Shape 4" d="M494.61,779.6a16.772,16.772,0,0,0-6.819,32.187,14.6,14.6,0,0,1,.3-3.858c.326-1.364,2.185-9.154,2.185-9.154a6.4,6.4,0,0,1-.542-2.658c0-2.489,1.459-4.349,3.276-4.349a2.26,2.26,0,0,1,2.291,2.522c0,1.536-.99,3.834-1.5,5.962a2.609,2.609,0,0,0,2.681,3.236c3.217,0,5.385-4.088,5.385-8.932,0-3.682-2.508-6.437-7.068-6.437a8,8,0,0,0-8.362,8.046,4.817,4.817,0,0,0,1.12,3.295.808.808,0,0,1,.244.936c-.082.309-.269,1.053-.346,1.348a.587.587,0,0,1-.851.42c-2.373-.958-3.479-3.529-3.479-6.418,0-4.772,4.069-10.495,12.14-10.495,6.485,0,10.753,4.642,10.753,9.624,0,6.59-3.7,11.514-9.165,11.514a4.886,4.886,0,0,1-4.15-2.094s-.986,3.871-1.2,4.618a14,14,0,0,1-1.71,3.6,17.145,17.145,0,0,0,4.814.689,16.8,16.8,0,1,0,0-33.6Z" transform="translate(-477.624 -779.6)" fill="#6b6b6b"/>
</svg>
