<svg xmlns="http://www.w3.org/2000/svg" width="40" height="38" viewBox="0 0 40 38">
  <g id="Contact_User" data-name="Contact / User" transform="translate(-222 -127)">
    <g id="Contact_User-2" data-name="Contact / User" transform="translate(-575.009 -33.683)">
      <g id="Group_1" data-name="Group 1">
        <path id="Path_1" data-name="Path 1" d="M828.329,189.072c-5.245-1.9-6.921-3.5-6.921-6.922,0-2.057,1.6-1.385,2.3-5.151.292-1.562,1.706-.025,1.977-3.592,0-1.422-.772-1.775-.772-1.775s.392-2.1.546-3.722c.19-2.017-1.174-7.228-8.454-7.228s-8.646,5.211-8.454,7.228c.154,1.619.546,3.722.546,3.722s-.772.353-.772,1.775c.27,3.566,1.685,2.03,1.977,3.592.7,3.766,2.3,3.094,2.3,5.151,0,3.425-1.676,5.025-6.921,6.922-5.262,1.9-8.68,3.843-8.68,5.165v4.445h40v-4.445C837.009,192.915,833.591,190.975,828.329,189.072Z"/>
      </g>
    </g>
    <path id="Color_Overlay" data-name="Color Overlay" d="M242,165H222v-4.444c0-1.323,3.418-3.263,8.68-5.166,5.245-1.9,6.921-3.5,6.921-6.922,0-2.057-1.6-1.385-2.3-5.151-.292-1.562-1.706-.025-1.976-3.592,0-1.422.772-1.775.772-1.775s-.392-2.1-.546-3.722C233.355,132.211,234.72,127,242,127s8.645,5.211,8.455,7.228c-.154,1.619-.546,3.722-.546,3.722s.772.353.772,1.775c-.272,3.567-1.686,2.029-1.977,3.592-.7,3.766-2.3,3.094-2.3,5.151,0,3.426,1.677,5.026,6.922,6.922,5.261,1.9,8.68,3.843,8.68,5.166V165Z" fill="#666"/>
  </g>
</svg>
