<svg xmlns="http://www.w3.org/2000/svg" width="48.033" height="48.56" viewBox="0 0 48.033 48.56">
  <g id="Vector_Smart_Object" data-name="Vector Smart Object" transform="translate(-89.204 -74.437)">
    <path id="Path_7" data-name="Path 7" d="M137.236,123H89.2l5.564-35.28h36.905Z" fill="#b3b3b3"/>
    <path id="Path_8" data-name="Path 8" d="M118.77,97.256a6.961,6.961,0,0,0-5.611,2.892,6.962,6.962,0,0,0-5.611-2.892,7.352,7.352,0,0,0,0,14.693,6.961,6.961,0,0,0,5.611-2.892,6.96,6.96,0,0,0,5.611,2.892,7.352,7.352,0,0,0,0-14.693Z" fill="none" stroke="#fff" stroke-miterlimit="10" stroke-width="2.387"/>
    <path id="Path_9" data-name="Path 9" d="M122.077,89.26V84.841a8.924,8.924,0,1,0-17.834,0V89.26" fill="none" stroke="#b3b3b3" stroke-miterlimit="10" stroke-width="2.269"/>
  </g>
</svg>
