<svg xmlns="http://www.w3.org/2000/svg" width="370.17" height="106" viewBox="0 0 370.17 106">
  <g id="logo" transform="translate(-133.253 -232.571)">
    <text id="l" transform="translate(147.253 318.571)" font-size="91.564" font-family="TrebuchetMS-Bold, Trebuchet MS" font-weight="700" letter-spacing="-0.025em"><tspan x="-13.502" y="0">l</tspan></text>
    <text id="kshop" transform="translate(383.423 318.571)" font-size="91.564" font-family="TrebuchetMS-Bold, Trebuchet MS" font-weight="700" letter-spacing="-0.025em"><tspan x="-119.936" y="0">kshop</tspan></text>
    <path id="Shape_1" data-name="Shape 1" d="M239.563,270.008a24.108,24.108,0,0,0-17.838,7.924,17.246,17.246,0,0,0-17.7-.259,24.094,24.094,0,0,0-17.6-7.665C172.936,270.008,162,281.2,162,295s10.938,25,24.431,25,24.432-11.192,24.432-25a25.309,25.309,0,0,0-3.512-12.918,12.178,12.178,0,0,1,11.149.26A25.311,25.311,0,0,0,215.131,295c0,13.805,10.939,25,24.432,25s24.431-11.192,24.431-25S253.055,270.008,239.563,270.008Z" fill="#ffa687"/>
  </g>
</svg>
