<svg xmlns="http://www.w3.org/2000/svg" width="32.78" height="26.521" viewBox="0 0 32.78 26.521">
  <path id="Shape_3" data-name="Shape 3" d="M422.791,787.871a13.5,13.5,0,0,1-3.863,1.054,6.721,6.721,0,0,0,2.957-3.7,13.52,13.52,0,0,1-4.271,1.625,6.721,6.721,0,0,0-11.46,6.107,19.122,19.122,0,0,1-13.862-7,6.681,6.681,0,0,0,2.081,8.939,6.729,6.729,0,0,1-3.047-.837c0,.028,0,.056,0,.084a6.708,6.708,0,0,0,5.395,6.565,6.771,6.771,0,0,1-3.038.114,6.729,6.729,0,0,0,6.283,4.649,13.53,13.53,0,0,1-8.353,2.866,13.7,13.7,0,0,1-1.6-.094,19.1,19.1,0,0,0,10.309,3.008c12.371,0,19.135-10.2,19.135-19.049q0-.435-.02-.866A13.631,13.631,0,0,0,422.791,787.871Z" transform="translate(-390.011 -784.732)" fill="#6b6b6b"/>
</svg>
